<svg t="1715845031761" class="icon" viewBox="0 0 1024 1024" version="1.1" xmlns="http://www.w3.org/2000/svg" p-id="4722" width="128" height="128"><path d="M245.753447 122.875085h655.333786v532.458702H245.753447z" fill="#EFCF48" p-id="4723"></path><path d="M122.878362 1023.959042c0-181.404584 182.920043-327.666893 409.583616-327.666894s409.583617 147.204352 409.583617 327.666894H122.878362z" fill="#B3D3EF" p-id="4724"></path><path d="M450.545255 614.375425h163.833447v163.833447H450.545255z" fill="#ECF1F2" p-id="4725"></path><path d="M532.461978 696.292148c29.326187 0 57.095956-11.836967 81.916724-31.25123V614.375425c-24.042558 20.274389-51.853286 31.25123-81.916724 31.25123S475.366022 633.789688 450.545255 614.375425v50.665493c24.820767 20.274389 52.590536 31.25123 81.916723 31.25123z" fill="#C7CAC7" p-id="4726"></path><path d="M573.42034 860.125595l-40.958362 40.958362-40.958361-40.958362 40.958361-40.958362zM573.42034 1023.959042h-81.916723l23.632974-122.875085h33.790649z" fill="#48A0DB" p-id="4727"></path><path d="M403.443139 696.292148L327.67017 759.24515 448.579254 860.125595 532.461978 792.626215zM661.480818 696.292148L737.253787 759.24515 616.344703 860.125595 532.461978 792.626215z" fill="#B3D3EF" p-id="4728"></path><path d="M292.15927 400.572777c11.222591 33.299148 36.24815 55.211872 55.867206 48.904284 19.660014-6.348546 26.418143-38.50086 15.154594-71.800008-11.222591-33.340106-36.24815-55.25283-55.867206-48.945242-19.660014 6.348546-26.418143 38.50086-15.154594 71.800008zM716.897481 449.477061c12.697092 4.095836 28.26127-3.686253 40.958362-20.274389 12.656134-16.629095 20.397264-39.647694 20.356305-60.372625-0.040958-20.724931-7.904964-36.0024-20.602056-40.098236-12.697092-4.095836-28.26127 3.686253-40.958361 20.274389A103.952322 103.952322 0 0 0 696.295425 409.378825c0.040958 20.724931 7.904964 36.0024 20.602056 40.098236z" fill="#ECF1F2" p-id="4729"></path><path d="M368.628532 368.625255c0 158.345026 91.705772 286.708532 204.791808 286.708532s204.791808-128.363505 204.791808-286.708532-91.705772-286.708532-204.791808-286.708532-204.791808 128.363505-204.791808 286.708532z" fill="#FFFFFF" p-id="4730"></path><path d="M737.253787 366.986921c-4.382545-58.48854-14.826927-84.374225-50.665494-132.827967-41.040278-55.99008-74.216551-20.888764-123.120835 14.212551-62.01096 45.054198-128.363505-5.857046-167.683533-9.215631-37.558818-3.317627-30.554938 20.888764-68.113755 127.790088 0 14.25351 0.860126 29.285229 2.621335 42.637655 34.077357-100.266069 28.834687-123.653294 65.533379-120.294709 39.279069 3.358586 105.672573 54.310788 167.642574 9.174673 48.904284-35.060358 82.080557-70.161674 123.120835-14.171593 32.357106 43.415863 43.661614 69.301548 48.904284 116.936123C737.253787 389.514019 737.253787 377.840886 737.253787 366.986921z" fill="#C7CAC7" p-id="4731"></path><path d="M637.233467 42.228071C525.499057-69.342506 184.93028 40.384945 316.488537 368.625255c37.845526-118.00104 30.636855-144.74685 70.243591-141.060598 40.548778 3.686253 109.031159 59.922083 173.008119 10.116716 50.460702-38.705652 84.701892-77.411304 127.052838-15.646094 36.944442 53.450662 46.856366 82.039598 52.26287 146.589976 59.471541-56.235831 69.383465-301.4945-101.822488-326.397184z" fill="#424B61" p-id="4732"></path><path d="M245.753447 368.625255h655.333786v81.916723H245.753447z" fill="#ECF1F2" p-id="4733"></path><path d="M229.370102 344.295988h18.349346c1.843126-16.055678 8.232631-27.687852 16.465261-31.25123 1.843126-0.901084 2.785169-0.901084 4.587337-0.901084 2.74421 9.830007 6.430463 20.561098 10.075757 31.25123h35.75665l5.48842-16.055678c3.686253-12.4923 7.331547-23.223391 10.075757-33.053397 15.564177-54.474621 18.308388-58.037998 38.459902-56.276789 10.075757 0.901084 23.796808 6.266629 38.50086 11.632174 39.360986 14.294468 92.483981 33.913523 143.763849-3.563377 5.529379-3.604336 11.017799-8.068797 15.564178-11.632175 25.680893-18.75893 46.733491-35.715691 65.942962-33.053398 11.959842 1.802168 22.936683 10.731091 34.814607 26.827727 25.680893 35.715691 37.599776 58.939082 44.931323 90.190313 1.802168 8.027839 2.74421 16.055678 3.645294 24.9846h38.50086c4.546378-8.027839 8.191672-17.857846 10.976841-27.687852 6.389504 5.365545 10.075757 15.195552 10.976841 27.687852h18.308388c-1.802168-21.421223-10.075757-39.279069-24.697892-46.405824 9.133715-41.982321 8.191672-91.99248-5.529379-134.875885-21.052598-66.966921-68.687173-109.850326-135.572177-120.581416-62.25671-56.276789-182.264709-55.375705-270.202312 2.703252-42.146154 27.687852-124.595336 102.682613-93.426023 250.951882a17.325387 17.325387 0 0 0-6.430463 1.802167c-17.407304 4.464461-27.442102 23.182433-29.285229 47.306908zM368.628532 58.570457C449.234587 5.816087 562.812124 4.915003 617.778246 56.727331c1.843126 0.901084 2.74421 1.802168 5.48842 2.662293 77.861846 10.731091 110.833327 65.205712 124.595336 108.949242a250.910924 250.910924 0 0 1 5.488421 126.848047c-1.843126 7.126755-3.686253 13.393384-5.488421 19.660013-3.686253 9.830007-7.372505 19.660014-11.877925 26.786769 0 0.901084-0.942042 1.76121-0.942042 2.662293l-2.74421-18.758929a124.062877 124.062877 0 0 0-4.587337-19.660014c-6.430463-22.322307-15.564177-41.941362-30.227271-65.164753-4.587337-6.266629-9.174673-13.393384-14.663093-20.561098-14.663093-20.520139-30.227271-32.152314-46.692532-34.814607-2.785169 0-4.587337-0.901084-7.372505-0.901084-23.796808 0-46.692532 16.956762-72.332467 36.616775-4.587337 3.563377-10.075757 8.027839-15.564178 11.632175-43.088196 31.25123-87.036519 15.154594-125.49642 0.860125-15.564177-5.324587-30.227271-11.591216-43.088196-12.4923-24.697892-1.802168-34.814607 6.266629-43.948322 26.786768-4.587337 10.731091-8.232631 24.124475-13.721051 41.982321-1.843126 6.266629-3.686253 13.393384-6.430463 21.421223-1.843126 6.266629-3.686253 13.393384-6.430463 20.561098l-2.74421 8.027839-5.488421-16.055678c0-0.901084 0-0.901084-0.901084-1.802168a234.609496 234.609496 0 0 1-6.430462-24.124475C252.306785 155.846566 330.16863 84.415183 368.628532 58.570457z m353.593536 679.622095l-73.315467-71.431382a9.01084 9.01084 0 0 0-12.819968 0l-14.622135 12.4923V628.301268c50.378785-38.377985 89.73977-101.822487 106.24599-178.578457 17.407304-0.942042 35.715691-13.434343 48.535659-34.855566h-22.895724c-7.331547 8.027839-15.564177 13.393384-22.936683 16.055678 0.942042-5.324587 1.884085-10.690132 1.884085-16.055678h-18.349346c0 4.464461 0 8.027839-0.901084 11.591217-0.901084 6.266629-1.843126 13.393384-3.686253 19.660013-15.564177 73.233551-52.180953 133.933843-100.757569 169.690493a142.535099 142.535099 0 0 1-29.285229 17.857845c-21.093556 9.830007-43.98928 15.154594-66.885005 15.154594-23.796808 0-45.791448-5.324587-66.844046-15.154594a142.535099 142.535099 0 0 1-29.326187-17.857845C368.628532 580.093276 331.970798 519.352026 316.406621 446.118475a125.25067 125.25067 0 0 1-3.686253-19.660013c-1.802168-3.563377-1.802168-7.126755-2.703252-10.690133H291.626812c0.942042 5.324587 1.843126 10.690132 1.843126 16.055678-7.331547-1.802168-15.564177-7.126755-22.895724-16.055678h-22.936683c13.76201 20.520139 31.169313 33.913523 48.576617 34.814608 16.50622 76.796928 54.966121 140.200472 106.24599 178.619415v50.010159l-14.622135-12.4923c-3.686253-3.563377-9.174673-2.703252-12.819967 0l-73.315467 71.431383C170.799645 792.626215 81.92 896.25087 81.92 1015.030119c0 5.324587 3.686253 8.928923 9.174673 8.928923h841.776249c5.529379 0 9.174673-3.563377 9.174673-8.928923 0-118.779249-88.879645-222.403904-219.823527-276.878525z m-106.286949-31.25123l5.529379-4.464461 20.151514-17.857846 38.459902 37.51786 24.73885 24.124475-2.74421 2.662293-106.286949 104.484781-21.052597-19.660014-0.901084-0.860126-48.576617-47.347866 73.315467-63.403543 4.546378-3.563378 12.819967-11.632175z m-62.256709 132.172633l-27.483061 26.786769h-26.581977l-27.442102-26.786769 32.029439-29.49002 9.174673-8.887964 9.133714 8.928922 31.128355 29.490021z m-131.885925-198.23847a172.025119 172.025119 0 0 0 181.322667 0v53.573537l-10.075757 8.928923-18.308387 16.055678-62.25671 53.614495-62.338627-53.614495-18.308387-16.055678-10.075757-8.928923v-53.573537z m-77.00172 82.162473l38.50086-37.517859 20.151514 17.857846 5.488421 4.464461 12.819967 11.591217 4.587336 3.604335 73.315468 63.403544-48.576617 47.306908-0.942043 0.901084-21.953681 20.561098-106.286949-105.385865-2.74421-2.703252 25.680893-24.083517z m117.26379 283.104196H101.17043c4.546378-106.286949 84.25135-198.23847 202.416223-249.190672l119.065958 116.116955a10.034799 10.034799 0 0 0 6.430462 2.662294 10.034799 10.034799 0 0 0 6.430463-2.662294l22.895724-21.421223 27.442103 26.786769-23.75585 127.708171z m18.308387 0l21.093557-112.553578 1.843126-9.830006h21.052598l1.843126 7.167713 21.052598 114.314787H480.362942v0.901084z m85.193393 0l-23.796809-129.510339 25.639935-24.984601 22.936682 21.421223c1.802168 1.802168 3.645294 2.662294 6.389505 2.662294a8.396464 8.396464 0 0 0 6.389504-2.662294l119.106916-116.116955c118.164873 50.911244 197.828887 142.944682 202.416223 249.190672h-359.081956z" fill="#000000" p-id="4734"></path><path d="M132.17591 239.811208c5.570337 0 9.297548-3.481461 9.297548-8.76509V99.446902h139.25843c5.611296 0 9.338506-3.481461 9.338506-8.765089 0-5.24267-3.727211-8.765089-9.297548-8.76509H132.17591C126.564614 81.916723 122.878362 85.439142 122.878362 90.681813v140.364305c0 5.283629 3.686253 8.765089 9.297548 8.76509zM932.748047 81.916723h-148.596936c-5.570337 0-9.297548 3.522419-9.297548 8.76509 0 5.283629 3.727211 8.765089 9.297548 8.765089h139.299388v131.599216c0 5.283629 3.727211 8.765089 9.297548 8.76509S942.045595 236.329747 942.045595 231.046118V90.681813A9.051798 9.051798 0 0 0 932.748047 81.916723z m0 497.439303c-5.570337 0-9.297548 3.481461-9.297548 8.765089v131.599216h-139.25843c-5.611296 0-9.338506 3.481461-9.338506 8.76509 0 5.24267 3.727211 8.765089 9.297548 8.765089h148.596936c5.570337 0 9.297548-3.522419 9.297548-8.765089v-140.364306a9.051798 9.051798 0 0 0-9.297548-8.765089zM280.772846 719.720331H141.473458v-131.599216c0-5.283629-3.727211-8.765089-9.297548-8.765089S122.878362 582.837487 122.878362 588.121115v140.364306c0 5.24267 3.686253 8.765089 9.297548 8.765089h148.596936c5.570337 0 9.297548-3.522419 9.297548-8.765089 0-5.283629-4.669253-8.765089-9.297548-8.76509zM123.820404 409.9932c0 5.24267 3.686253 8.765089 9.25659 8.76509h798.769969c5.570337 0 9.25659-3.522419 9.25659-8.76509 0-5.283629-3.686253-8.765089-9.25659-8.765089H133.076994c-5.570337 0-9.25659 3.481461-9.25659 8.765089z" fill="#000000" p-id="4735"></path></svg>